<svg xmlns="http://www.w3.org/2000/svg" viewBox="0 0 200 200" role="img" aria-labelledby="logoTitle">
  <title id="logoTitle">Franchise Hub</title>
  <defs>
    <linearGradient id="logoGradient" x1="0" y1="0" x2="1" y2="1">
      <stop offset="0%" stop-color="#60a5fa"/>
      <stop offset="100%" stop-color="#22c55e"/>
    </linearGradient>
    <radialGradient id="bgGlow" cx="50%" cy="50%" r="70%">
      <stop offset="0%" stop-color="#2563eb" stop-opacity=".16"/>
      <stop offset="100%" stop-color="#0f172a" stop-opacity="0"/>
    </radialGradient>
  </defs>
  <circle cx="100" cy="100" r="98" fill="url(#bgGlow)" />
  <path d="M62 58h46v18H88v24h34v18H88v40H62V58zm47 0h22c11 0 20 9 20 20v46c0 11-9 20-20 20h-22V58zm22 18h-4v42h4c2.2 0 4-1.8 4-4V92c0-2.2-1.8-4-4-4zm0 24h-4v12h4c2.2 0 4-1.8 4-4v-4c0-2.2-1.8-4-4-4z" fill="url(#logoGradient)" />
</svg>
